# xmcd
# 
# Track frame offsets:
#     150
#     18423
#     38365
#     56072
#     76358
#     92521
#     108068
#     133753
#     152957
#     178139
#     200697
#     220299
#     237664
#     264328
#     283714
#     302122
# 
# Disc length: 4298
# 
# Revision: 0
# Processed by: cddbd v1.5.2PL0 Copyright (c) Steve Scherf et al.
# Submitted via: fre:ac v1.0.27
# 
DISCID=df10c810
DTITLE=Billie Holiday - Essential Original Albums
DYEAR=2016
DGENRE=Jazz
TTITLE0=It Had To Be You
TTITLE1=Come Rain Or Come Shine
TTITLE2=I Don't Want To Cry Anymore
TTITLE3=I Don't Stand A Ghost Of A Chance With you
TTITLE4=A Fine Romance
TTITLE5=Gone With The Wind
TTITLE6=I Get A Kick Out Of You
TTITLE7=Isn't This A Lovely Day?
TTITLE8=Prelude To A Kiss
TTITLE9=When your Lover Has Gone
TTITLE10=Please Don't Talk About Me When I'm Gone
TTITLE11=Nice Work If You Can Get It
TTITLE12=I Gotta Right To Sing The Blue
TTITLE13=What's New?
TTITLE14=I Hadn't Anyone Till You
TTITLE15=Everything I Have Is Yours
EXTD=
EXTT0=
EXTT1=
EXTT2=
EXTT3=
EXTT4=
EXTT5=
EXTT6=
EXTT7=
EXTT8=
EXTT9=
EXTT10=
EXTT11=
EXTT12=
EXTT13=
EXTT14=
EXTT15=
PLAYORDER=
